<svg viewBox="0 0 1600 1000" xmlns="http://www.w3.org/2000/svg" role="img" aria-label="Atelier poids lourds BC Trucks · visuel à remplacer" preserveAspectRatio="xMidYMid slice">
  <defs>
    <linearGradient id="hg" x1="0" y1="0" x2="1" y2="1">
      <stop offset="0" stop-color="#e9e7e1"/>
      <stop offset="0.55" stop-color="#ecebe5"/>
      <stop offset="1" stop-color="#f4f2ee"/>
    </linearGradient>
    <pattern id="grid" width="80" height="80" patternUnits="userSpaceOnUse">
      <path d="M80 0H0V80" fill="none" stroke="#101114" stroke-opacity="0.04" stroke-width="1.5"/>
    </pattern>
  </defs>
  <rect width="1600" height="1000" fill="url(#hg)"/>
  <rect width="1600" height="1000" fill="url(#grid)"/>
  <g opacity="0.9">
    <!-- silhouette poids lourd -->
    <path d="M250 720h720l150-220h120l-40 220h70v110h-70a70 70 0 0 1-140 0H560a70 70 0 0 1-140 0H250z" fill="#e2e0da" stroke="#cfccc4" stroke-width="3"/>
    <rect x="300" y="540" width="320" height="180" fill="#e6e4df" stroke="#cfccc4" stroke-width="3"/>
    <circle cx="520" cy="830" r="56" fill="#d6d4ce" stroke="#c9342a" stroke-width="6"/>
    <circle cx="520" cy="830" r="22" fill="#f4f2ee"/>
    <circle cx="1010" cy="830" r="56" fill="#d6d4ce" stroke="#c9342a" stroke-width="6"/>
    <circle cx="1010" cy="830" r="22" fill="#f4f2ee"/>
    <rect x="990" y="540" width="150" height="70" fill="#c9342a" opacity="0.85"/>
  </g>
  <!-- bandes hazard -->
  <g opacity="0.5">
    <rect x="0" y="0" width="1600" height="14" fill="#d6d4ce"/>
    <path d="M0 0 L40 0 L0 40 Z" fill="#c9342a"/>
  </g>
  <g font-family="Arial, sans-serif" text-anchor="middle">
    <rect x="560" y="120" width="480" height="44" rx="6" fill="#c9342a"/>
    <text x="800" y="150" fill="#d6d4ce" font-size="22" font-weight="700" letter-spacing="2">PHOTO ATELIER À REMPLACER</text>
    <text x="800" y="210" fill="#565a61" font-size="20" letter-spacing="1">assets/img/hero.svg · image poids lourds / atelier</text>
  </g>
</svg>
